<svg width="630" height="535" viewBox="0 0 630 535" fill="none" xmlns="http://www.w3.org/2000/svg">
<g id="moon">
<path id="moon_2" d="M404.152 204.811V202.478C404.539 171.279 397.621 140.423 383.951 112.376C370.281 84.3287 350.239 59.8688 325.426 40.9518C300.614 22.0348 271.72 9.18543 241.054 3.43096C210.388 -2.32352 178.802 -0.823451 148.819 7.81124C169.949 15.4621 188.187 29.4756 201.021 47.9219C213.856 66.3681 220.656 88.3397 220.486 110.811C220.486 139.985 208.896 167.964 188.267 188.593C167.638 209.222 139.659 220.811 110.486 220.811C88.0142 220.982 66.0425 214.182 47.5963 201.347C29.15 188.512 15.1366 170.274 7.48568 149.145C-4.37485 191.268 -2.09212 236.119 13.9839 276.821C30.0598 317.523 59.0416 351.828 96.4857 374.478C108.138 359.256 123.351 347.131 140.788 339.168C158.225 331.205 177.352 327.649 196.486 328.811C207.633 292.141 230.133 259.957 260.744 236.894C291.355 213.83 328.497 201.08 366.819 200.478C379.393 200.399 391.93 201.855 404.152 204.811Z" fill="black"/>
<path id="cloud" d="M483.454 281.669C492.403 279.445 501.569 278.215 510.788 278.002C543.475 279.304 574.316 293.504 596.556 317.494C618.797 341.484 630.627 373.31 629.454 406.002C630.627 438.695 618.797 470.52 596.556 494.51C574.316 518.5 543.475 532.7 510.788 534.002H185.121C172.861 533.532 160.816 530.633 149.685 525.472C138.554 520.31 128.559 512.99 120.279 503.935C112 494.881 105.601 484.272 101.454 472.725C97.3068 461.178 95.4942 448.922 96.121 436.669C96.2681 412.001 105.528 388.257 122.121 370.002C130.097 361.21 139.82 354.178 150.668 349.357C161.515 344.536 173.25 342.031 185.121 342.002C194.449 342.115 203.691 343.805 212.454 347.002L218.121 343.669C223.06 308.461 240.29 276.135 266.765 252.405C293.239 228.676 327.252 215.073 362.788 214.002C374.066 213.934 385.295 215.506 396.121 218.669C432.182 227.805 463.409 250.332 483.454 281.669Z" fill="black"/>
</g>
</svg>
