<svg width="98" height="98" viewBox="0 0 98 98" fill="none" xmlns="http://www.w3.org/2000/svg">
<path fill-rule="evenodd" clip-rule="evenodd" d="M53.0909 79.6364V97.3334H44.2424V79.6364H53.0909ZM73.694 67.4372L86.2076 79.9508L79.9508 86.2076L67.4372 73.694L73.694 67.4372ZM23.6394 67.4372L29.8962 73.694L17.3826 86.2076L11.1257 79.9508L23.6394 67.4372ZM48.6667 24.4757C62.027 24.4757 72.8577 35.3064 72.8577 48.6667C72.8577 62.027 62.027 72.8578 48.6667 72.8578C42.2471 72.87 36.0869 70.3252 31.5475 65.7859C27.0081 61.2465 24.4634 55.0863 24.4756 48.6667C24.4756 35.3064 35.3064 24.4757 48.6667 24.4757ZM48.6667 33.3242C40.1932 33.3242 33.3241 40.1933 33.3241 48.6836C33.3164 52.7506 34.9285 56.6532 37.8043 59.529C40.6801 62.4048 44.5828 64.017 48.6667 64.0093C57.1401 64.0093 64.0092 57.1401 64.0092 48.6667C64.0092 40.1933 57.1401 33.3242 48.6667 33.3242ZM97.3334 44.2424V53.0909H79.6364V44.2424H97.3334ZM17.697 44.2424V53.0909H0V44.2424H17.697ZM17.3826 11.1257L29.8962 23.6394L23.6394 29.8962L11.1257 17.3826L17.3826 11.1257ZM79.9508 11.1257L86.2076 17.3826L73.694 29.8962L67.4372 23.6394L79.9508 11.1257ZM53.0909 0V17.697H44.2424V0L53.0909 0Z" fill="white"/>
</svg>
