<svg width="421" height="316" viewBox="0 0 421 316" fill="none" xmlns="http://www.w3.org/2000/svg">
<path d="M420.015 287.495C420.015 303.232 334.947 315.991 230.008 315.991C125.068 315.991 40 303.232 40 287.495C40 276.355 82.6414 266.703 144.786 262.021C170.413 260.085 199.367 259 230.008 259C242.603 259 254.911 259.184 266.814 259.533C354.138 262.107 420.015 273.646 420.015 287.495Z" fill="url(#paint0_linear_89_2)"/>
<g clip-path="url(#clip0_89_2)">
<path d="M168.679 262.527C137.865 262.527 108.788 252.978 84.5916 234.911L85.3297 234.014C109.314 251.921 138.136 261.387 168.679 261.387C199.246 261.387 228.085 251.908 252.08 233.975L252.819 234.872C228.611 252.964 199.516 262.527 168.679 262.527Z" fill="url(#paint1_linear_89_2)"/>
<path d="M305.633 223.801C306.827 223.875 307.487 222.412 306.584 221.559L306.494 221.206C306.506 221.178 306.518 221.15 306.53 221.122C307.737 218.281 311.831 218.301 313.028 221.145C314.091 223.67 315.444 226.199 315.778 228.869C315.927 230.047 315.86 231.248 315.595 232.404C318.085 227.039 319.396 221.18 319.396 215.287C319.396 213.807 319.313 212.326 319.145 210.85C319.007 209.642 318.817 208.441 318.57 207.252C317.237 200.822 314.351 194.697 310.188 189.582C308.187 188.503 306.518 186.817 305.509 184.795C305.147 184.066 304.863 183.281 304.729 182.482C304.957 182.512 305.588 179.09 305.416 178.88C305.733 178.405 306.302 178.169 306.648 177.706C308.372 175.4 310.748 175.803 311.988 178.936C314.637 180.254 314.662 182.441 313.037 184.544C312.003 185.882 311.861 187.693 310.953 189.126C311.047 189.243 311.144 189.358 311.237 189.475C312.949 191.641 314.429 193.968 315.678 196.414C315.325 193.696 315.846 190.422 316.733 188.312C317.744 185.907 319.638 183.882 321.306 181.803C323.31 179.306 327.419 180.396 327.772 183.561C327.775 183.592 327.779 183.623 327.782 183.653C327.534 183.791 327.291 183.937 327.054 184.092C325.702 184.974 326.169 187.042 327.772 187.286L327.808 187.292C327.718 188.172 327.565 189.045 327.341 189.903C329.481 198.065 324.861 201.038 318.264 201.172C318.119 201.245 317.977 201.319 317.831 201.389C318.5 203.245 319.033 205.149 319.429 207.079C319.784 208.784 320.03 210.507 320.169 212.238C320.34 214.422 320.325 216.617 320.139 218.797L320.15 218.719C320.624 216.318 321.946 214.076 323.865 212.522C326.724 210.205 330.763 209.352 333.848 207.49C335.333 206.594 337.235 207.752 336.976 209.45L336.963 209.531C336.504 209.715 336.056 209.929 335.623 210.168C335.375 210.306 335.133 210.453 334.895 210.607C333.543 211.49 334.01 213.557 335.613 213.801L335.649 213.807C335.675 213.81 335.698 213.814 335.724 213.818C334.936 215.663 333.838 217.375 332.464 218.852C331.126 225.978 325.379 226.654 319.231 224.579H319.228C318.556 227.466 317.573 230.287 316.311 232.975H305.894C305.857 232.861 305.823 232.743 305.789 232.629C306.753 232.688 307.724 232.633 308.672 232.46C307.899 231.524 307.126 230.581 306.353 229.646C306.335 229.627 306.32 229.609 306.305 229.591C305.913 229.112 305.517 228.637 305.125 228.158L305.125 228.158C305.1 226.688 305.279 225.223 305.633 223.802L305.633 223.801Z" fill="#F2F2F2"/>
<path d="M12.3905 223.801C11.1962 223.875 10.5361 222.412 11.4397 221.559L11.5296 221.206C11.5178 221.178 11.5059 221.15 11.4939 221.122C10.2861 218.281 6.19276 218.301 4.99524 221.145C3.93235 223.67 2.57912 226.199 2.24592 228.869C2.09655 230.047 2.16375 231.248 2.42887 232.404C-0.0616207 227.039 -1.37222 221.18 -1.37222 215.287C-1.37222 213.807 -1.29005 212.326 -1.12205 210.85C-0.983881 209.642 -0.793461 208.441 -0.547005 207.252C0.78595 200.822 3.67227 194.697 7.83552 189.582C9.83688 188.503 11.5059 186.817 12.5141 184.795C12.8762 184.066 13.16 183.281 13.2944 182.482C13.0667 182.512 12.4356 179.09 12.6074 178.88C12.29 178.405 11.7219 178.169 11.3752 177.706C9.65115 175.4 7.27581 175.803 6.03578 178.936C3.38678 180.254 3.36114 182.441 4.98655 184.544C6.02065 185.882 6.16273 187.693 7.07007 189.126C6.9767 189.243 6.87962 189.358 6.78628 189.475C5.07449 191.641 3.59397 193.968 2.34587 196.414C2.69861 193.696 2.17784 190.422 1.29002 188.312C0.279394 185.907 -1.61488 183.882 -3.28301 181.803C-5.28671 179.306 -9.39548 180.396 -9.74849 183.561C-9.7519 183.592 -9.75523 183.623 -9.75849 183.653C-9.51072 183.791 -9.26798 183.937 -9.03087 184.092C-7.67841 184.974 -8.14582 187.042 -9.74834 187.286L-9.78462 187.292C-9.695 188.172 -9.54191 189.045 -9.3179 189.903C-11.4579 198.065 -6.83779 201.038 -0.240877 201.172C-0.0952473 201.245 0.0466557 201.319 0.192286 201.389C-0.476097 203.245 -1.01006 205.149 -1.40582 207.079C-1.76054 208.784 -2.00699 210.507 -2.14512 212.238C-2.31691 214.422 -2.30196 216.617 -2.11525 218.797L-2.12646 218.719C-2.60064 216.318 -3.92245 214.076 -5.84167 212.522C-8.70073 210.205 -12.74 209.352 -15.8245 207.49C-17.3092 206.594 -19.2118 207.752 -18.9527 209.45L-18.9401 209.531C-18.4808 209.715 -18.0328 209.929 -17.5996 210.168C-17.3518 210.306 -17.1091 210.453 -16.872 210.607C-15.5195 211.49 -15.9869 213.557 -17.5895 213.801L-17.6258 213.807C-17.6519 213.81 -17.6743 213.814 -17.7004 213.818C-16.9126 215.663 -15.8148 217.375 -14.4408 218.852C-13.1027 225.978 -7.35556 226.654 -1.20794 224.579H-1.20419C-0.532097 227.466 0.449917 230.287 1.71198 232.975H12.1295C12.1668 232.861 12.2004 232.743 12.234 232.629C11.2707 232.688 10.2999 232.633 9.35145 232.46C10.1244 231.524 10.8973 230.581 11.6702 229.646C11.6889 229.627 11.7038 229.609 11.7187 229.591C12.1108 229.112 12.5066 228.637 12.8986 228.158L12.8988 228.158C12.9234 226.688 12.7448 225.223 12.3908 223.802L12.3905 223.801Z" fill="#F2F2F2"/>
<path d="M68.0994 234.412L67.6135 234.973C48.6397 219.013 37.7576 195.763 37.7576 171.185C37.7576 148.796 46.597 127.748 62.6473 111.918C78.6978 96.0878 100.038 87.3696 122.738 87.3696C145.438 87.3696 166.779 96.0878 182.829 111.918C198.88 127.748 207.719 148.796 207.719 171.185C207.719 195.763 196.837 219.013 177.863 234.973L177.377 234.412" fill="#F2F2F2"/>
<path d="M254.111 234.085L253.361 233.218C282.403 208.789 299.059 173.202 299.059 135.582C299.059 64.8435 240.709 7.29342 168.986 7.29342C97.2641 7.29342 38.9138 64.8434 38.9138 135.582C38.9138 173.202 55.57 208.789 84.6119 233.218L83.8616 234.085C54.562 209.439 37.7576 173.536 37.7576 135.582C37.7576 101.009 51.4076 68.5067 76.1928 44.0611C100.978 19.6159 133.933 6.15308 168.986 6.15308C204.04 6.15308 236.994 19.6159 261.78 44.0611C286.565 68.5067 300.215 101.009 300.215 135.582C300.215 173.536 283.411 209.439 254.111 234.085V234.085Z" fill="url(#paint2_linear_89_2)"/>
<path d="M209.35 233.857C209.35 234.233 209.656 234.535 210.038 234.535H336.231C336.613 234.535 336.919 234.233 336.919 233.857C336.919 233.481 336.613 233.178 336.231 233.178H210.038C209.656 233.178 209.35 233.481 209.35 233.857Z" fill="#CCCCCC"/>
<path d="M169.564 6.72314H168.408V46.2941H169.564V6.72314Z" fill="url(#paint3_linear_89_2)"/>
<path d="M79.2077 133.701H39.0868V134.842H79.2077V133.701Z" fill="url(#paint4_linear_89_2)"/>
<path d="M83.3318 38.1878L82.4359 38.9089L107.803 69.566L108.699 68.8448L83.3318 38.1878Z" fill="url(#paint5_linear_89_2)"/>
<path d="M94.554 186.885L63.4764 211.913L64.2075 212.796L95.2851 187.768L94.554 186.885Z" fill="url(#paint6_linear_89_2)"/>
<path d="M298.886 133.701H258.765V134.842H298.886V133.701Z" fill="url(#paint7_linear_89_2)"/>
<path d="M254.64 38.1871L229.274 68.8457L230.17 69.5668L255.536 38.9081L254.64 38.1871Z" fill="url(#paint8_linear_89_2)"/>
<path d="M243.415 186.889L242.685 187.772L273.768 212.792L274.499 211.909L243.415 186.889Z" fill="url(#paint9_linear_89_2)"/>
<path d="M168.986 147.556C177.926 147.556 185.173 140.408 185.173 131.591C185.173 122.774 177.926 115.626 168.986 115.626C160.047 115.626 152.799 122.774 152.799 131.591C152.799 140.408 160.047 147.556 168.986 147.556Z" fill="url(#paint10_linear_89_2)"/>
<path d="M243.561 192.599C246.754 192.599 249.342 190.046 249.342 186.898C249.342 183.749 246.754 181.196 243.561 181.196C240.369 181.196 237.78 183.749 237.78 186.898C237.78 190.046 240.369 192.599 243.561 192.599Z" fill="url(#paint11_linear_89_2)"/>
<path d="M256.279 141.284C259.472 141.284 262.06 138.731 262.06 135.582C262.06 132.433 259.472 129.88 256.279 129.88C253.087 129.88 250.498 132.433 250.498 135.582C250.498 138.731 253.087 141.284 256.279 141.284Z" fill="url(#paint12_linear_89_2)"/>
<path d="M228.531 75.1437C231.723 75.1437 234.312 72.5909 234.312 69.442C234.312 66.293 231.723 63.7402 228.531 63.7402C225.338 63.7402 222.75 66.293 222.75 69.442C222.75 72.5909 225.338 75.1437 228.531 75.1437Z" fill="url(#paint13_linear_89_2)"/>
<path d="M168.408 53.4772C171.601 53.4772 174.189 50.9244 174.189 47.7754C174.189 44.6265 171.601 42.0737 168.408 42.0737C165.215 42.0737 162.627 44.6265 162.627 47.7754C162.627 50.9244 165.215 53.4772 168.408 53.4772Z" fill="url(#paint14_linear_89_2)"/>
<path d="M108.864 75.1437C112.057 75.1437 114.645 72.5909 114.645 69.442C114.645 66.293 112.057 63.7402 108.864 63.7402C105.671 63.7402 103.083 66.293 103.083 69.442C103.083 72.5909 105.671 75.1437 108.864 75.1437Z" fill="url(#paint15_linear_89_2)"/>
<path d="M79.3807 139.573C82.5735 139.573 85.1617 137.02 85.1617 133.871C85.1617 130.722 82.5735 128.17 79.3807 128.17C76.188 128.17 73.5997 130.722 73.5997 133.871C73.5997 137.02 76.188 139.573 79.3807 139.573Z" fill="url(#paint16_linear_89_2)"/>
<path d="M95.5676 192.029C98.7604 192.029 101.349 189.476 101.349 186.327C101.349 183.178 98.7604 180.625 95.5676 180.625C92.3749 180.625 89.7866 183.178 89.7866 186.327C89.7866 189.476 92.3749 192.029 95.5676 192.029Z" fill="url(#paint17_linear_89_2)"/>
<path d="M137.226 138.457C140.419 138.457 143.007 135.904 143.007 132.755C143.007 129.606 140.419 127.053 137.226 127.053C134.033 127.053 131.445 129.606 131.445 132.755C131.445 135.904 134.033 138.457 137.226 138.457Z" fill="url(#paint18_linear_89_2)"/>
<path d="M270.644 122.897L141.27 128.392C139.037 128.487 137.305 130.349 137.401 132.551L137.401 132.551C137.497 134.753 139.385 136.462 141.618 136.367L270.992 130.872C273.225 130.777 274.957 128.915 274.861 126.713C274.765 124.51 272.877 122.802 270.644 122.897Z" fill="url(#paint19_linear_89_2)"/>
<path d="M213.435 278.085L206.693 278.084L203.485 252.434L213.437 252.435L213.435 278.085Z" fill="#A0616A"/>
<path d="M190.335 277.934C190.125 278.283 190.014 279.408 190.014 279.814C190.014 281.06 191.039 282.071 192.303 282.071H213.183C214.045 282.071 214.744 281.381 214.744 280.531V279.673C214.744 279.673 215.777 277.097 213.65 273.92C213.65 273.92 211.007 276.407 207.058 272.512L205.893 270.431L197.463 276.512L192.79 277.08C191.767 277.204 190.861 277.06 190.335 277.934V277.934Z" fill="#2F2E41"/>
<path d="M248.939 278.085L242.196 278.084L238.989 252.434L248.94 252.435L248.939 278.085Z" fill="#A0616A"/>
<path d="M225.839 277.934C225.629 278.283 225.518 279.408 225.518 279.814C225.518 281.06 226.542 282.071 227.806 282.071H248.686C249.549 282.071 250.248 281.381 250.248 280.531V279.673C250.248 279.673 251.28 277.097 249.154 273.92C249.154 273.92 246.511 276.407 242.561 272.512L241.397 270.431L232.966 276.512L228.293 277.08C227.271 277.204 226.364 277.06 225.839 277.934V277.934Z" fill="#2F2E41"/>
<path d="M264.612 71.6082L265.326 101.733L258.715 128.846L252.561 126.828L254.354 102.129L252.777 68.8474L264.612 71.6082Z" fill="#A0616A"/>
<path d="M258.848 133.175C259.419 129.29 257.986 125.869 255.647 125.535C253.308 125.201 250.949 128.079 250.379 131.964C249.808 135.85 251.241 139.27 253.58 139.604C255.919 139.938 258.278 137.06 258.848 133.175Z" fill="#A0616A"/>
<path d="M249.054 44.3562C249.054 44.3562 260.397 44.3308 262.312 50.8862C264.304 57.7023 267.481 83.1247 266.107 83.1261L251.945 84.8914L249.054 44.3562Z" fill="url(#paint20_linear_89_2)"/>
<path d="M205.218 74.8188L198.968 104.314L186.279 129.234L180.751 125.89L188.192 102.239L197.798 69.4758L205.218 74.8188Z" fill="#A0616A"/>
<path d="M185.411 133.48C186.862 129.824 186.255 126.172 184.055 125.322C181.854 124.472 178.893 126.746 177.442 130.401C175.99 134.057 176.597 137.709 178.798 138.559C180.998 139.409 183.959 137.135 185.411 133.48Z" fill="#A0616A"/>
<path d="M203.197 45.5691C203.197 45.5691 209.4 48.2973 211.134 54.9016C212.712 60.909 216.613 87.345 205.151 86.104L190.699 84.9637C190.596 70.933 196.738 57.7041 203.197 45.5691Z" fill="url(#paint21_linear_89_2)"/>
<path d="M201.36 131.591L199.047 152.117L200.204 209.794L202.516 263.871H214.747L228.531 165.231L237.471 263.871H251.673L255.701 197.161C255.701 197.161 258.592 135.012 253.389 129.88C248.186 124.749 201.36 131.591 201.36 131.591Z" fill="#2F2E41"/>
<path d="M239.804 33.8064H220.865L216.68 39.5081C216.68 39.5081 208.586 40.6485 203.383 45.78L202.805 100.516L199.047 136.309L255.697 134.727L252.233 115.056L254.541 46.0157C254.541 46.0157 248.475 38.9379 244.428 40.0783L239.804 33.8064Z" fill="url(#paint22_linear_89_2)"/>
<path d="M225.528 30.7578C233.354 30.7578 239.698 24.5005 239.698 16.7817C239.698 9.06296 233.354 2.80566 225.528 2.80566C217.702 2.80566 211.357 9.06296 211.357 16.7817C211.357 24.5005 217.702 30.7578 225.528 30.7578Z" fill="#A0616A"/>
<path d="M237.702 3.76753C236.117 2.39055 233.941 1.59785 231.865 1.73834C230.607 1.82349 229.385 1.43323 228.268 0.855656C228.193 0.816554 228.115 0.780953 228.037 0.749051C227.333 0.462004 226.55 0.429841 225.788 0.448052C224.4 0.481265 222.758 -0.892239 221.67 1.01256C217.555 0.24811 217.175 2.60698 215.259 3.99699C214.717 3.68128 211.207 4.25643 210.837 4.82447C210.556 5.25706 210.36 5.69778 210.228 6.12573C210.143 6.40025 210.656 7.40184 210.617 7.66034C210.578 7.91883 209.987 7.43426 209.982 7.66571C209.969 8.28527 210.056 8.78816 210.13 9.06863C210.318 9.78445 208.391 8.8674 207.759 9.26461C207.126 9.66185 207.771 11.4998 207.152 11.9177C206.415 12.4164 206.903 12.9676 207.546 13.6194C207.99 14.0686 208.506 14.5655 208.745 15.1259C209.332 16.4996 206.111 17.7169 207.593 17.4266C209.123 17.127 209.622 19.4753 210.909 18.6066C213.82 16.6413 213.715 16.8025 216.256 19.2165C216.962 19.8868 218.348 17.2619 219.281 17.5565C221.039 18.1116 222.476 19.972 223.636 22.7843C223.801 23.1823 222.243 29.6764 222.172 30.1002C222.005 31.0877 226.667 28.8595 226.654 29.9366C226.638 31.358 229.2 29.5663 229.937 30.8121C230.03 30.6986 235.227 28.3676 235.476 28.1865L239.077 24.7538C241.437 20.7698 242.338 15.9649 241.579 11.4117C241.101 8.54398 239.913 5.68831 237.702 3.76753H237.702Z" fill="#2F2E41"/>
<path d="M168.304 282.322C168.304 282.698 168.611 283 168.992 283H295.186C295.567 283 295.874 282.698 295.874 282.322C295.874 281.945 295.567 281.643 295.186 281.643H168.992C168.611 281.643 168.304 281.945 168.304 282.322Z" fill="#CCCCCC"/>
<path d="M-19 233.857C-19 234.233 -18.6936 234.535 -18.312 234.535H107.881C108.263 234.535 108.569 234.233 108.569 233.857C108.569 233.481 108.263 233.178 107.881 233.178H-18.312C-18.6936 233.178 -19 233.481 -19 233.857Z" fill="#CCCCCC"/>
</g>
<defs>
<linearGradient id="paint0_linear_89_2" x1="230.008" y1="259" x2="230.008" y2="315.991" gradientUnits="userSpaceOnUse">
<stop stop-color="#2C163C"/>
<stop offset="1" stop-color="#C31432"/>
</linearGradient>
<linearGradient id="paint1_linear_89_2" x1="168.705" y1="233.975" x2="168.705" y2="262.527" gradientUnits="userSpaceOnUse">
<stop stop-color="#2C163C"/>
<stop offset="1" stop-color="#C31432"/>
</linearGradient>
<linearGradient id="paint2_linear_89_2" x1="168.986" y1="6.15308" x2="168.986" y2="234.085" gradientUnits="userSpaceOnUse">
<stop stop-color="#2C163C"/>
<stop offset="1" stop-color="#C31432"/>
</linearGradient>
<linearGradient id="paint3_linear_89_2" x1="168.986" y1="6.72314" x2="168.986" y2="46.2941" gradientUnits="userSpaceOnUse">
<stop stop-color="#2C163C"/>
<stop offset="1" stop-color="#C31432"/>
</linearGradient>
<linearGradient id="paint4_linear_89_2" x1="59.1473" y1="133.701" x2="59.1473" y2="134.842" gradientUnits="userSpaceOnUse">
<stop stop-color="#2C163C"/>
<stop offset="1" stop-color="#C31432"/>
</linearGradient>
<linearGradient id="paint5_linear_89_2" x1="82.8839" y1="38.5484" x2="107.832" y2="69.5429" gradientUnits="userSpaceOnUse">
<stop stop-color="#2C163C"/>
<stop offset="1" stop-color="#C31432"/>
</linearGradient>
<linearGradient id="paint6_linear_89_2" x1="79.0152" y1="199.399" x2="79.7342" y2="200.292" gradientUnits="userSpaceOnUse">
<stop stop-color="#2C163C"/>
<stop offset="1" stop-color="#C31432"/>
</linearGradient>
<linearGradient id="paint7_linear_89_2" x1="278.825" y1="133.701" x2="278.825" y2="134.842" gradientUnits="userSpaceOnUse">
<stop stop-color="#2C163C"/>
<stop offset="1" stop-color="#C31432"/>
</linearGradient>
<linearGradient id="paint8_linear_89_2" x1="241.957" y1="53.5164" x2="242.843" y2="54.2494" gradientUnits="userSpaceOnUse">
<stop stop-color="#2C163C"/>
<stop offset="1" stop-color="#C31432"/>
</linearGradient>
<linearGradient id="paint9_linear_89_2" x1="243.05" y1="187.331" x2="273.789" y2="212.767" gradientUnits="userSpaceOnUse">
<stop stop-color="#2C163C"/>
<stop offset="1" stop-color="#C31432"/>
</linearGradient>
<linearGradient id="paint10_linear_89_2" x1="168.986" y1="115.626" x2="168.986" y2="147.556" gradientUnits="userSpaceOnUse">
<stop stop-color="#2C163C"/>
<stop offset="1" stop-color="#C31432"/>
</linearGradient>
<linearGradient id="paint11_linear_89_2" x1="243.561" y1="181.196" x2="243.561" y2="192.599" gradientUnits="userSpaceOnUse">
<stop stop-color="#2C163C"/>
<stop offset="1" stop-color="#C31432"/>
</linearGradient>
<linearGradient id="paint12_linear_89_2" x1="256.279" y1="129.88" x2="256.279" y2="141.284" gradientUnits="userSpaceOnUse">
<stop stop-color="#2C163C"/>
<stop offset="1" stop-color="#C31432"/>
</linearGradient>
<linearGradient id="paint13_linear_89_2" x1="228.531" y1="63.7402" x2="228.531" y2="75.1437" gradientUnits="userSpaceOnUse">
<stop stop-color="#2C163C"/>
<stop offset="1" stop-color="#C31432"/>
</linearGradient>
<linearGradient id="paint14_linear_89_2" x1="168.408" y1="42.0737" x2="168.408" y2="53.4772" gradientUnits="userSpaceOnUse">
<stop stop-color="#2C163C"/>
<stop offset="1" stop-color="#C31432"/>
</linearGradient>
<linearGradient id="paint15_linear_89_2" x1="108.864" y1="63.7402" x2="108.864" y2="75.1437" gradientUnits="userSpaceOnUse">
<stop stop-color="#2C163C"/>
<stop offset="1" stop-color="#C31432"/>
</linearGradient>
<linearGradient id="paint16_linear_89_2" x1="79.3807" y1="128.17" x2="79.3807" y2="139.573" gradientUnits="userSpaceOnUse">
<stop stop-color="#2C163C"/>
<stop offset="1" stop-color="#C31432"/>
</linearGradient>
<linearGradient id="paint17_linear_89_2" x1="95.5676" y1="180.625" x2="95.5676" y2="192.029" gradientUnits="userSpaceOnUse">
<stop stop-color="#2C163C"/>
<stop offset="1" stop-color="#C31432"/>
</linearGradient>
<linearGradient id="paint18_linear_89_2" x1="137.226" y1="127.053" x2="137.226" y2="138.457" gradientUnits="userSpaceOnUse">
<stop stop-color="#2C163C"/>
<stop offset="1" stop-color="#C31432"/>
</linearGradient>
<linearGradient id="paint19_linear_89_2" x1="205.957" y1="125.644" x2="206.296" y2="133.62" gradientUnits="userSpaceOnUse">
<stop stop-color="#2C163C"/>
<stop offset="1" stop-color="#C31432"/>
</linearGradient>
<linearGradient id="paint20_linear_89_2" x1="257.748" y1="44.3562" x2="257.748" y2="84.8914" gradientUnits="userSpaceOnUse">
<stop stop-color="#2C163C"/>
<stop offset="1" stop-color="#C31432"/>
</linearGradient>
<linearGradient id="paint21_linear_89_2" x1="201.881" y1="45.5691" x2="201.881" y2="86.1463" gradientUnits="userSpaceOnUse">
<stop stop-color="#2C163C"/>
<stop offset="1" stop-color="#C31432"/>
</linearGradient>
<linearGradient id="paint22_linear_89_2" x1="227.372" y1="33.8064" x2="227.372" y2="136.309" gradientUnits="userSpaceOnUse">
<stop stop-color="#2C163C"/>
<stop offset="1" stop-color="#C31432"/>
</linearGradient>
<clipPath id="clip0_89_2">
<rect width="356" height="283" fill="white" transform="translate(-19)"/>
</clipPath>
</defs>
</svg>
