<svg width="524" height="226" viewBox="0 0 524 226" fill="none" xmlns="http://www.w3.org/2000/svg">
<path d="M232.692 148.293C234.411 144.705 226.443 137.401 214.895 131.98C203.347 126.559 192.591 125.073 190.872 128.661C189.152 132.249 197.12 139.553 208.668 144.974C220.217 150.395 230.972 151.881 232.692 148.293Z" fill="#2F2E41"/>
<path d="M328 185.252C331.076 182.702 326.919 172.772 318.714 163.073C310.509 153.373 301.363 147.576 298.287 150.126C295.21 152.675 299.368 162.605 307.573 172.305C315.778 182.005 324.924 187.801 328 185.252Z" fill="#2F2E41"/>
<path d="M263.914 205.547C289.476 205.547 310.199 185.036 310.199 159.734C310.199 134.433 289.476 113.922 263.914 113.922C238.351 113.922 217.629 134.433 217.629 159.734C217.629 185.036 238.351 205.547 263.914 205.547Z" fill="#2F2E41"/>
<path d="M283.505 195.688H269.443V220.624H283.505V195.688Z" fill="#2F2E41"/>
<path d="M255.382 195.688H241.321V220.624H255.382V195.688Z" fill="#2F2E41"/>
<path d="M271.787 225.263C278.259 225.263 283.505 223.316 283.505 220.914C283.505 218.512 278.259 216.565 271.787 216.565C265.316 216.565 260.069 218.512 260.069 220.914C260.069 223.316 265.316 225.263 271.787 225.263Z" fill="#2F2E41"/>
<path d="M243.665 224.683C250.136 224.683 255.382 222.736 255.382 220.334C255.382 217.932 250.136 215.985 243.665 215.985C237.193 215.985 231.947 217.932 231.947 220.334C231.947 222.736 237.193 224.683 243.665 224.683Z" fill="#2F2E41"/>
<path d="M249.381 102.147C253.514 85.6726 271.757 75.9779 290.128 80.4931C308.5 85.0082 320.042 102.023 315.909 118.498C311.776 134.972 298.065 135.025 279.693 130.51C261.322 125.994 245.248 118.621 249.381 102.147Z" fill="url(#paint0_linear_18_809)"/>
<path d="M256.994 165.341C265.517 165.341 272.426 158.503 272.426 150.068C272.426 141.632 265.517 134.794 256.994 134.794C248.472 134.794 241.563 141.632 241.563 150.068C241.563 158.503 248.472 165.341 256.994 165.341Z" fill="white"/>
<path d="M250.652 149.684C253.493 149.684 255.796 147.405 255.796 144.593C255.796 141.781 253.493 139.501 250.652 139.501C247.811 139.501 245.508 141.781 245.508 144.593C245.508 147.405 247.811 149.684 250.652 149.684Z" fill="#3F3D56"/>
<path d="M266.675 181.89C267.161 184.546 266.562 187.284 265.009 189.503C263.457 191.722 261.077 193.24 258.394 193.723C255.711 194.207 252.944 193.616 250.701 192.081C248.458 190.546 246.923 188.192 246.432 185.537L246.428 185.518C245.416 179.984 249.739 178.026 255.33 177.024C260.921 176.022 265.663 176.356 266.675 181.89Z" fill="white"/>
<path d="M437.634 170.908C445.115 181.165 453.817 187.596 457.07 185.272C460.323 182.947 456.896 172.747 449.415 162.49C441.935 152.233 433.233 145.802 429.979 148.126C426.726 150.451 430.153 160.65 437.634 170.908Z" fill="#2F2E41"/>
<path d="M348.427 172.305C356.632 162.605 360.79 152.675 357.713 150.126C354.637 147.576 345.491 153.373 337.286 163.072C329.081 172.772 324.924 182.702 328 185.252C331.077 187.801 340.222 182.005 348.427 172.305Z" fill="#2F2E41"/>
<path d="M392.086 205.547C417.649 205.547 438.371 185.036 438.371 159.734C438.371 134.433 417.649 113.922 392.086 113.922C366.524 113.922 345.801 134.433 345.801 159.734C345.801 185.036 366.524 205.547 392.086 205.547Z" fill="#2F2E41"/>
<path d="M386.557 195.688H372.495V220.624H386.557V195.688Z" fill="#2F2E41"/>
<path d="M414.679 195.688H400.618V220.624H414.679V195.688Z" fill="#2F2E41"/>
<path d="M375.222 225.574C381.694 225.574 386.94 223.627 386.94 221.225C386.94 218.823 381.694 216.875 375.222 216.875C368.751 216.875 363.505 218.823 363.505 221.225C363.505 223.627 368.751 225.574 375.222 225.574Z" fill="#2F2E41"/>
<path d="M412.336 224.683C418.807 224.683 424.053 222.736 424.053 220.334C424.053 217.932 418.807 215.985 412.336 215.985C405.864 215.985 400.618 217.932 400.618 220.334C400.618 222.736 405.864 224.683 412.336 224.683Z" fill="#2F2E41"/>
<path d="M444.711 118.766C450.838 102.912 441.473 84.6333 423.793 77.9395C406.113 71.2458 386.814 78.6718 380.687 94.5259C374.56 110.38 385.778 118.184 403.458 124.878C421.138 131.572 438.584 134.62 444.711 118.766Z" fill="url(#paint1_linear_18_809)"/>
<path d="M399.006 165.341C407.528 165.341 414.437 158.503 414.437 150.068C414.437 141.632 407.528 134.794 399.006 134.794C390.483 134.794 383.574 141.632 383.574 150.068C383.574 158.503 390.483 165.341 399.006 165.341Z" fill="white"/>
<path d="M392.882 150.102C395.723 150.102 398.026 147.823 398.026 145.011C398.026 142.199 395.723 139.92 392.882 139.92C390.041 139.92 387.738 142.199 387.738 145.011C387.738 147.823 390.041 150.102 392.882 150.102Z" fill="#3F3D56"/>
<path d="M389.325 181.89C388.839 184.546 389.438 187.284 390.991 189.503C392.543 191.722 394.923 193.24 397.606 193.723C400.288 194.207 403.056 193.616 405.299 192.081C407.542 190.546 409.077 188.192 409.568 185.537L409.571 185.518C410.584 179.984 406.261 178.026 400.67 177.024C395.079 176.022 390.337 176.356 389.325 181.89Z" fill="white"/>
<defs>
<linearGradient id="paint0_linear_18_809" x1="282.737" y1="79.3853" x2="282.737" y2="133.065" gradientUnits="userSpaceOnUse">
<stop stop-color="#2C163C"/>
<stop offset="1" stop-color="#C31432"/>
</linearGradient>
<linearGradient id="paint1_linear_18_809" x1="430.496" y1="81.2139" x2="399.911" y2="125.546" gradientUnits="userSpaceOnUse">
<stop stop-color="#2C163C"/>
<stop offset="1" stop-color="#C31432"/>
</linearGradient>
</defs>
</svg>
