<svg width="484" height="312" viewBox="0 0 484 312" fill="none" xmlns="http://www.w3.org/2000/svg">
<g id="undraw_graduation_re_gthn 1" clip-path="url(#clip0_4_62)">
<path id="Vector" d="M337.905 50.2782C338.722 49.9105 339.377 49.2517 339.745 48.4272C340.113 47.6027 340.168 46.67 339.9 45.8067C339.857 45.6744 339.829 45.5373 339.818 45.3985C339.791 45.0022 339.891 44.6077 340.103 44.2734C340.315 43.9391 340.627 43.6828 340.995 43.5424C341.362 43.402 341.764 43.3851 342.141 43.4941C342.519 43.603 342.852 43.8321 343.09 44.1475C343.173 44.2593 343.241 44.3806 343.295 44.5088C343.659 45.3355 344.31 45.9981 345.125 46.3705C345.94 46.7429 346.862 46.7991 347.715 46.5284C347.845 46.4846 347.981 46.4567 348.118 46.4451C348.51 46.4178 348.899 46.519 349.23 46.7335C349.56 46.9481 349.814 47.2645 349.952 47.6361C350.091 48.0077 350.108 48.4146 350 48.7966C349.893 49.1785 349.666 49.5152 349.355 49.7568C349.244 49.8399 349.124 49.9095 348.998 49.9642C348.181 50.3319 347.526 50.9907 347.158 51.8153C346.791 52.6398 346.735 53.5724 347.003 54.4357C347.046 54.5681 347.074 54.7051 347.085 54.844C347.112 55.2403 347.012 55.6348 346.8 55.9691C346.588 56.3034 346.276 56.5597 345.909 56.7C345.541 56.8404 345.139 56.8574 344.762 56.7484C344.384 56.6394 344.052 56.4103 343.813 56.095C343.731 55.9831 343.662 55.8618 343.608 55.7336C343.244 54.9069 342.593 54.2444 341.778 53.872C340.963 53.4996 340.042 53.4433 339.189 53.714C339.058 53.7577 338.922 53.7857 338.785 53.7973C338.394 53.8246 338.004 53.7235 337.673 53.5089C337.343 53.2944 337.09 52.9779 336.951 52.6063C336.812 52.2347 336.795 51.8278 336.903 51.4459C337.01 51.0639 337.237 50.7271 337.548 50.4856C337.659 50.4025 337.779 50.3329 337.905 50.2782Z" fill="#6C63FF"/>
<path id="Vector_2" d="M269.791 214.358C270.607 213.99 271.262 213.331 271.63 212.507C271.998 211.682 272.053 210.75 271.785 209.886C271.742 209.754 271.715 209.617 271.703 209.478C271.676 209.082 271.776 208.687 271.988 208.353C272.2 208.019 272.513 207.762 272.88 207.622C273.247 207.482 273.649 207.465 274.026 207.574C274.404 207.683 274.737 207.912 274.976 208.227C275.058 208.339 275.126 208.46 275.181 208.589C275.544 209.415 276.195 210.078 277.01 210.45C277.825 210.823 278.747 210.879 279.6 210.608C279.73 210.564 279.866 210.536 280.003 210.525C280.395 210.498 280.785 210.599 281.115 210.813C281.445 211.028 281.699 211.344 281.838 211.716C281.976 212.087 281.993 212.494 281.885 212.876C281.778 213.258 281.552 213.595 281.24 213.837C281.129 213.92 281.01 213.989 280.883 214.044C280.066 214.412 279.411 215.07 279.044 215.895C278.676 216.719 278.62 217.652 278.888 218.515C278.931 218.648 278.959 218.785 278.97 218.924C278.997 219.32 278.897 219.714 278.686 220.049C278.474 220.383 278.161 220.639 277.794 220.78C277.427 220.92 277.024 220.937 276.647 220.828C276.269 220.719 275.937 220.49 275.698 220.175C275.616 220.063 275.547 219.942 275.493 219.813C275.129 218.987 274.478 218.324 273.663 217.952C272.848 217.579 271.927 217.523 271.074 217.794C270.943 217.837 270.808 217.865 270.67 217.877C270.279 217.904 269.889 217.803 269.558 217.589C269.228 217.374 268.975 217.058 268.836 216.686C268.697 216.314 268.68 215.908 268.788 215.526C268.896 215.144 269.122 214.807 269.433 214.565C269.544 214.482 269.664 214.413 269.791 214.358Z" fill="#F1F1F1"/>
<path id="Vector_3" d="M480.645 58.7309C477.36 58.7568 474.675 56.0826 474.649 52.7581C474.623 49.4335 477.265 46.7175 480.55 46.6916C483.836 46.6658 486.52 49.3399 486.546 52.6645C486.573 55.989 483.931 58.7051 480.645 58.7309Z" fill="#F1F1F1"/>
<path id="Vector_4" d="M163.256 45.1742C159.971 45.2 157.286 42.5259 157.26 39.2013C157.234 35.8767 159.876 33.1607 163.161 33.1349C166.447 33.109 169.131 35.7832 169.157 39.1077C169.184 42.4323 166.542 45.1483 163.256 45.1742Z" fill="#6C63FF"/>
<path id="Vector_5" d="M403.207 288.794C379.625 288.98 360.356 269.785 360.169 245.922C359.981 222.058 378.946 202.563 402.528 202.377C426.11 202.192 445.379 221.386 445.567 245.25C445.754 269.113 426.789 288.609 403.207 288.794Z" fill="#2F2E41"/>
<path id="Vector_6" d="M409.62 279.445L422.592 279.343L422.777 302.862L409.805 302.964L409.62 279.445Z" fill="#2F2E41"/>
<path id="Vector_7" d="M383.677 279.649L396.648 279.547L396.833 303.065L383.862 303.168L383.677 279.649Z" fill="#2F2E41"/>
<path id="Vector_8" d="M412.002 307.322C406.032 307.369 401.177 305.57 401.16 303.305C401.142 301.039 405.967 299.165 411.937 299.118C417.907 299.071 422.761 300.869 422.779 303.135C422.797 305.4 417.972 307.275 412.002 307.322Z" fill="#2F2E41"/>
<path id="Vector_9" d="M386.054 306.979C380.083 307.026 375.229 305.228 375.211 302.962C375.194 300.697 380.019 298.822 385.989 298.775C391.959 298.728 396.813 300.527 396.831 302.792C396.849 305.058 392.024 306.932 386.054 306.979Z" fill="#2F2E41"/>
<path id="handtwo" d="M356.707 227.066C347.386 217.774 342.166 207.842 345.048 204.881C347.93 201.921 357.823 207.054 367.144 216.346C376.465 225.638 381.684 235.57 378.802 238.531C375.92 241.491 366.028 236.358 356.707 227.066Z" fill="#2F2E41"/>
<path id="Vector_10" d="M441.146 266.512C433.599 255.696 430.201 244.986 433.555 242.589C436.91 240.192 445.748 247.016 453.295 257.832C460.843 268.647 464.241 279.358 460.886 281.755C457.531 284.152 448.694 277.327 441.146 266.512Z" fill="#2F2E41"/>
<path id="Vector_11" d="M404.732 254.216C396.672 254.279 390.087 247.719 390.023 239.563C389.958 231.407 396.44 224.744 404.5 224.681C412.559 224.618 419.145 231.178 419.209 239.334C419.273 247.489 412.792 254.152 404.732 254.216Z" fill="white"/>
<path id="Vector_12" d="M399.658 239.393C396.971 239.415 394.776 237.228 394.755 234.509C394.733 231.791 396.894 229.57 399.581 229.548C402.267 229.527 404.462 231.714 404.484 234.433C404.505 237.151 402.345 239.372 399.658 239.393Z" fill="#3F3D56"/>
<path id="Vector_13" d="M387.334 266.898C385.944 272.127 391.198 277.087 399.069 277.975C406.941 278.863 414.449 275.343 415.84 270.114L415.845 270.095C417.228 264.865 411.132 263.066 403.259 262.183C395.386 261.3 388.717 261.667 387.334 266.898Z" fill="white"/>
<path id="Vector_14" d="M417.608 220.038C424.672 222.84 432.114 224.547 439.681 225.102C440.209 225.135 440.733 224.999 441.18 224.712C441.626 224.426 441.972 224.004 442.167 223.506L448.523 207.137C448.762 206.518 448.749 205.828 448.487 205.218C448.224 204.609 447.733 204.129 447.122 203.885L406.518 187.735C405.906 187.492 405.224 187.505 404.622 187.771C404.019 188.037 403.546 188.533 403.305 189.152L396.953 205.511C396.758 206.013 396.727 206.566 396.866 207.087C397.005 207.608 397.306 208.07 397.724 208.405C403.753 213.248 410.452 217.167 417.608 220.038Z" fill="url(#paint0_linear_4_62)"/>
<path id="Vector_15" opacity="0.2" d="M403.766 189.335L402.704 192.071L421.649 208.608C422.004 208.914 422.454 209.086 422.92 209.092L447.086 209.466L448.061 206.954C448.252 206.458 448.241 205.907 448.031 205.419C447.821 204.932 447.429 204.548 446.941 204.352L406.337 188.202C405.847 188.009 405.302 188.02 404.82 188.232C404.339 188.444 403.96 188.841 403.766 189.335Z" fill="black"/>
<path id="Vector_16" d="M423.492 205.688C423.769 205.798 424.063 205.858 424.36 205.863L460.472 206.423C460.982 206.431 461.483 206.279 461.905 205.988C462.327 205.697 462.65 205.282 462.829 204.798C463.009 204.314 463.037 203.786 462.909 203.286C462.781 202.786 462.503 202.338 462.114 202.003L436.484 179.977C436.07 179.622 435.552 179.414 435.011 179.383L397.637 177.385C397.121 177.358 396.609 177.494 396.173 177.775C395.737 178.057 395.399 178.469 395.207 178.954C395.014 179.44 394.976 179.974 395.098 180.482C395.22 180.991 395.497 181.448 395.888 181.789L422.78 205.254C422.991 205.438 423.232 205.585 423.492 205.688Z" fill="url(#paint1_linear_4_62)"/>
<path id="Vector_17" d="M452.444 216.243L453.367 216.61L458.624 203.071L430.478 191.875L430.115 192.809L457.339 203.638L452.444 216.243Z" fill="#3F3D56"/>
<path id="Vector_18" d="M452.559 219.367C451.464 219.375 450.569 218.484 450.56 217.376C450.552 216.268 451.432 215.362 452.527 215.354C453.622 215.345 454.517 216.236 454.526 217.345C454.535 218.453 453.654 219.358 452.559 219.367Z" fill="#3F3D56"/>
<g id="hat">
<path id="Vector_19" d="M239.509 144.777C245.914 140.662 251.668 135.592 256.577 129.74C256.916 129.329 257.117 128.82 257.152 128.286C257.187 127.752 257.054 127.22 256.772 126.767L247.469 111.909C247.116 111.348 246.558 110.951 245.917 110.805C245.276 110.659 244.604 110.777 244.048 111.132L207.199 134.756C206.645 135.112 206.253 135.677 206.109 136.326C205.965 136.975 206.081 137.655 206.433 138.217L215.731 153.066C216.016 153.522 216.439 153.873 216.936 154.068C217.434 154.262 217.98 154.289 218.494 154.145C225.915 152.082 232.996 148.925 239.509 144.777Z" fill="url(#paint2_linear_4_62)"/>
<path id="Vector_20" opacity="0.2" d="M206.851 137.948L208.406 140.432L232.778 134.725C233.232 134.617 233.635 134.35 233.915 133.973L248.478 114.457L247.05 112.177C246.768 111.729 246.321 111.412 245.808 111.296C245.296 111.179 244.758 111.273 244.314 111.556L207.465 135.179C207.022 135.465 206.709 135.917 206.594 136.436C206.479 136.955 206.571 137.498 206.851 137.948Z" fill="black"/>
<path id="Vector_21" d="M231.538 131.496C231.789 131.335 232.01 131.13 232.189 130.89L253.952 101.728C254.26 101.316 254.434 100.817 254.452 100.301C254.469 99.7845 254.328 99.2752 254.048 98.8428C253.768 98.4104 253.364 98.076 252.889 97.8852C252.414 97.6944 251.893 97.6565 251.397 97.7768L218.7 105.7C218.173 105.83 217.702 106.129 217.357 106.553L193.702 135.897C193.376 136.302 193.182 136.801 193.15 137.323C193.117 137.845 193.246 138.364 193.519 138.808C193.793 139.252 194.196 139.599 194.674 139.799C195.152 140 195.679 140.044 196.183 139.926L230.771 131.821C231.043 131.757 231.302 131.647 231.538 131.496Z" fill="url(#paint3_linear_4_62)"/>
<path id="Vector_22" d="M257.046 114.084L257.884 113.547L250.188 101.257L224.645 117.633L225.176 118.48L249.882 102.641L257.046 114.084Z" fill="#3F3D56"/>
</g>
<path id="Vector_23" d="M258.011 116.669C256.916 116.678 256.021 115.787 256.013 114.678C256.004 113.57 256.885 112.665 257.98 112.656C259.075 112.648 259.97 113.539 259.979 114.647C259.987 115.755 259.107 116.661 258.011 116.669Z" fill="#3F3D56"/>
<g id="dude">
<path id="Vector_24" d="M136.967 241.725C113.385 241.91 94.1157 222.716 93.9279 198.852C93.7402 174.989 112.705 155.494 136.287 155.308C159.869 155.123 179.138 174.317 179.326 198.181C179.514 222.044 160.549 241.539 136.967 241.725Z" fill="#2F2E41"/>
<path id="Vector_25" d="M107.202 221.153L118.324 227.911L106.362 248.074L95.24 241.316L107.202 221.153Z" fill="#2F2E41"/>
<path id="Vector_26" d="M129.446 234.67L140.569 241.428L128.607 261.591L117.485 254.832L129.446 234.67Z" fill="#2F2E41"/>
<path id="Vector_27" d="M102.283 250.699C97.1642 247.589 93.9486 243.493 95.1009 241.551C96.2531 239.608 101.337 240.555 106.456 243.666C111.575 246.776 114.79 250.872 113.638 252.814C112.486 254.756 107.402 253.81 102.283 250.699Z" fill="#2F2E41"/>
<path id="Vector_28" d="M124.806 263.747C119.687 260.636 116.471 256.54 117.624 254.598C118.776 252.656 123.86 253.603 128.979 256.713C134.098 259.823 137.313 263.919 136.161 265.862C135.009 267.804 129.925 266.857 124.806 263.747Z" fill="#2F2E41"/>
<path id="handone" d="M160.578 191.084C157.65 188.169 162.713 178.156 171.886 168.718C181.06 159.281 190.87 153.993 193.799 156.908C196.727 159.822 191.664 169.836 182.491 179.273C173.317 188.711 163.507 193.999 160.578 191.084Z" fill="#2F2E41"/>
<path id="Vector_29" d="M79.1843 235.594C75.7922 233.25 79.0218 222.487 86.398 211.554C93.7741 200.622 102.504 193.659 105.896 196.003C109.288 198.346 106.058 209.109 98.682 220.042C91.3059 230.975 82.5764 237.938 79.1843 235.594Z" fill="#2F2E41"/>
<path id="Vector_30" d="M149.723 201.038C141.663 201.101 135.077 194.541 135.013 186.385C134.949 178.23 141.431 171.567 149.49 171.503C157.55 171.44 164.136 178 164.2 186.156C164.264 194.312 157.782 200.975 149.723 201.038Z" fill="white"/>
<path id="Vector_31" d="M154.563 186.138C151.877 186.159 149.681 183.972 149.66 181.254C149.639 178.535 151.799 176.314 154.486 176.293C157.172 176.272 159.367 178.458 159.389 181.177C159.41 183.896 157.25 186.117 154.563 186.138Z" fill="#3F3D56"/>
<path id="Vector_32" d="M168.592 210.756C171.396 215.323 167.758 221.558 160.466 224.685C153.175 227.811 144.992 226.643 142.188 222.077L142.178 222.061C139.382 217.492 144.716 214.015 152.01 210.893C159.304 207.771 165.796 206.187 168.592 210.756Z" fill="white"/>
<path id="Vector_33" d="M150.527 144.15C146.592 128.643 129.691 119.631 112.776 124.023C95.8618 128.415 85.3398 144.547 89.2747 160.055C93.2096 175.562 105.859 175.513 122.774 171.121C139.688 166.729 154.462 159.658 150.527 144.15Z" fill="url(#paint4_linear_4_62)"/>
</g>
</g>
<defs>
<linearGradient id="paint0_linear_4_62" x1="422.588" y1="187.428" x2="422.886" y2="225.24" gradientUnits="userSpaceOnUse">
<stop stop-color="#2C163C"/>
<stop offset="1" stop-color="#C31432"/>
</linearGradient>
<linearGradient id="paint1_linear_4_62" x1="428.892" y1="177.135" x2="429.124" y2="206.67" gradientUnits="userSpaceOnUse">
<stop stop-color="#2C163C"/>
<stop offset="1" stop-color="#C31432"/>
</linearGradient>
<linearGradient id="paint2_linear_4_62" x1="231.433" y1="110.854" x2="231.773" y2="154.127" gradientUnits="userSpaceOnUse">
<stop stop-color="#2C163C"/>
<stop offset="1" stop-color="#C31432"/>
</linearGradient>
<linearGradient id="paint3_linear_4_62" x1="223.634" y1="97.9309" x2="208.139" y2="100.664" gradientUnits="userSpaceOnUse">
<stop stop-color="#C31432"/>
<stop offset="1" stop-color="#240B36"/>
</linearGradient>
<linearGradient id="paint4_linear_4_62" x1="119.587" y1="122.925" x2="119.985" y2="173.553" gradientUnits="userSpaceOnUse">
<stop stop-color="#2C163C"/>
<stop offset="1" stop-color="#C31432"/>
</linearGradient>
<clipPath id="clip0_4_62">
<rect width="804.088" height="305.005" fill="white" transform="matrix(-0.999969 0.0078659 0.0078659 0.999969 804.063 0)"/>
</clipPath>
</defs>
</svg>
